<svg id="logo-svg" data-name="Artboard 1" xmlns="http://www.w3.org/2000/svg"
                    xmlns:xlink="http://www.w3.org/1999/xlink" viewBox="0 0 2000 1000">
                    <defs>
                        <linearGradient id="linear-gradient" x1="628.06" y1="513.66" x2="628.06" y2="648.64"
                            gradientUnits="userSpaceOnUse">
                            <stop offset="0" stop-color="#e5213c" />
                            <stop offset="0.09" stop-color="#ce2033" />
                            <stop offset="0.19" stop-color="#bb202b" />
                            <stop offset="0.31" stop-color="#ad1f26" />
                            <stop offset="0.47" stop-color="#a51f23" />
                            <stop offset="0.75" stop-color="#a31f22" />
                        </linearGradient>
                        <linearGradient id="linear-gradient-2" x1="722.42" y1="506.85" x2="722.42" y2="519.55"
                            gradientUnits="userSpaceOnUse">
                            <stop offset="0.2" stop-color="#220061" />
                            <stop offset="1" stop-color="#03004a" />
                        </linearGradient>
                        <linearGradient id="linear-gradient-3" x1="702.91" y1="494.59" x2="702.91" y2="506.3"
                            xlink:href="#linear-gradient-2" />
                        <linearGradient id="linear-gradient-4" x1="726.09" y1="479.74" x2="726.09" y2="491.45"
                            xlink:href="#linear-gradient-2" />
                        <linearGradient id="linear-gradient-5" x1="699.49" y1="458.74" x2="699.49" y2="496.03"
                            xlink:href="#linear-gradient-2" />
                        <linearGradient id="linear-gradient-6" x1="676.66" y1="473.88" x2="676.66" y2="490.3"
                            xlink:href="#linear-gradient-2" />
                        <linearGradient id="linear-gradient-7" x1="682.64" y1="447" x2="682.64" y2="463.42"
                            xlink:href="#linear-gradient-2" />
                        <linearGradient id="linear-gradient-8" x1="645.09" y1="480.05" x2="645.09" y2="495.06"
                            xlink:href="#linear-gradient-2" />
                        <linearGradient id="linear-gradient-9" x1="630.41" y1="456.76" x2="630.41" y2="471.78"
                            xlink:href="#linear-gradient-2" />
                        <linearGradient id="linear-gradient-10" x1="599.72" y1="503.35" x2="599.72" y2="511.66"
                            xlink:href="#linear-gradient-2" />
                        <linearGradient id="linear-gradient-11" x1="703.79" y1="574.92" x2="703.79" y2="590.01"
                            xlink:href="#linear-gradient-2" />
                        <linearGradient id="linear-gradient-12" x1="708.33" y1="528.89" x2="708.33" y2="537.34"
                            xlink:href="#linear-gradient-2" />
                        <linearGradient id="linear-gradient-13" x1="735.08" y1="535.44" x2="735.08" y2="543.89"
                            xlink:href="#linear-gradient-2" />
                        <linearGradient id="linear-gradient-14" x1="657.6" y1="446.4" x2="657.6" y2="490"
                            xlink:href="#linear-gradient-2" />
                        <linearGradient id="linear-gradient-15" x1="621.67" y1="477.43" x2="621.67" y2="505.16"
                            xlink:href="#linear-gradient-2" />
                        <linearGradient id="linear-gradient-16" x1="713.35" y1="541.06" x2="713.35" y2="568.8"
                            xlink:href="#linear-gradient-2" />
                        <linearGradient id="linear-gradient-17" x1="96.91" y1="686.36" x2="437.5" y2="345.77"
                            gradientUnits="userSpaceOnUse">
                            <stop offset="0" stop-color="#e5213c" />
                            <stop offset="0.22" stop-color="#df213a" />
                            <stop offset="0.51" stop-color="#cf2033" />
                            <stop offset="0.83" stop-color="#b42029" />
                            <stop offset="1" stop-color="#a31f22" />
                        </linearGradient>
                        <linearGradient id="linear-gradient-18" x1="262.86" y1="461.51" x2="283.43" y2="461.51"
                            gradientUnits="userSpaceOnUse">
                            <stop offset="0" stop-color="#e5213c" stop-opacity="0" />
                            <stop offset="0.06" stop-color="#de203a" stop-opacity="0.08" />
                            <stop offset="0.34" stop-color="#ba1d2e" stop-opacity="0.47" />
                            <stop offset="0.59" stop-color="#a11a26" stop-opacity="0.76" />
                            <stop offset="0.78" stop-color="#911921" stop-opacity="0.94" />
                            <stop offset="0.9" stop-color="#8b181f" />
                        </linearGradient>
                        <linearGradient id="linear-gradient-19" x1="1724.49" y1="997.65" x2="1784.88" y2="1044.83"
                            gradientTransform="translate(1446.51 -1435.49) rotate(90)" xlink:href="#linear-gradient" />
                        <linearGradient id="linear-gradient-20" x1="514.04" y1="650.46" x2="335.55" y2="430.04"
                            gradientUnits="userSpaceOnUse">
                            <stop offset="0" stop-color="#e5213c" />
                            <stop offset="0.19" stop-color="#de2139" />
                            <stop offset="0.47" stop-color="#cb2032" />
                            <stop offset="0.8" stop-color="#ab1f25" />
                            <stop offset="0.88" stop-color="#a31f22" />
                        </linearGradient>
                        <linearGradient id="linear-gradient-21" x1="811.36" y1="547.85" x2="1052.68" y2="547.85"
                            gradientUnits="userSpaceOnUse">
                            <stop offset="0" stop-color="#03004a" />
                            <stop offset="0.8" stop-color="#220061" />
                        </linearGradient>
                        <linearGradient id="linear-gradient-22" x1="1121.63" y1="494.41" x2="1190.57" y2="494.41"
                            xlink:href="#linear-gradient-21" />
                        <linearGradient id="linear-gradient-23" x1="1259.52" y1="547.85" x2="1328.47" y2="547.85"
                            xlink:href="#linear-gradient-21" />
                        <linearGradient id="linear-gradient-24" x1="1397.42" y1="547.85" x2="1638.73" y2="547.85"
                            xlink:href="#linear-gradient-21" />
                        <linearGradient id="linear-gradient-25" x1="1707.68" y1="494.41" x2="1948.29" y2="494.41"
                            xlink:href="#linear-gradient-2" />
                        <linearGradient id="linear-gradient-26" x1="1776.62" y1="494.28" x2="1797.2" y2="494.28"
                            gradientUnits="userSpaceOnUse">
                            <stop offset="0" />
                            <stop offset="0.37" stop-color="#0c002a" stop-opacity="0.84" />
                            <stop offset="0.85" stop-color="#1b005c" stop-opacity="0.65" />
                        </linearGradient>
                        <linearGradient id="linear-gradient-27" x1="1259.52" y1="302.97" x2="1328.47" y2="302.97"
                            xlink:href="#linear-gradient-21" />
                    </defs>
                    <path
                        d="M682.89,608.63c.49,17.94-22.59,25.64-33,11l-9.59-13.55-.15.2-25,33.66a21.57,21.57,0,0,1-34.64-25.7l23.37-31.5-16-3.11c-17.63-3.41-20.13-27.6-3.58-34.56l71.28-30a18.16,18.16,0,0,1,25.18,16.25Z"
                        style="fill:url(#linear-gradient)" />
                    <path
                        d="M700.67,517.13a3,3,0,0,0,3.42,2.37l37.71-6.81a2.94,2.94,0,1,0-1-5.79L703,513.71A2.94,2.94,0,0,0,700.67,517.13Z"
                        style="fill:url(#linear-gradient-2)" />
                    <path
                        d="M709,500a2.94,2.94,0,1,0-3.18-4.95l-9.08,5.82a2.92,2.92,0,0,0-1.31,3,2.68,2.68,0,0,0,.42,1.06,2.93,2.93,0,0,0,4.06.89Z"
                        style="fill:url(#linear-gradient-3)" />
                    <path
                        d="M720,486a3,3,0,0,0-1.31,3,3,3,0,0,0,.42,1.06,2.94,2.94,0,0,0,4.07.89l9.08-5.81a2.94,2.94,0,0,0-3.17-5Z"
                        style="fill:url(#linear-gradient-4)" />
                    <path
                        d="M686.09,491.4a3,3,0,0,0-.48,2.21,2.94,2.94,0,0,0,5.31,1.16l22-31.4a2.94,2.94,0,1,0-4.82-3.37Z"
                        style="fill:url(#linear-gradient-5)" />
                    <path
                        d="M678.35,488l2.35-10.53a2.94,2.94,0,0,0-5.74-1.28l-2.35,10.53a3,3,0,0,0,0,1.16,2.94,2.94,0,0,0,5.77.12Z"
                        style="fill:url(#linear-gradient-6)" />
                    <path
                        d="M681,449.31l-2.35,10.53a3,3,0,0,0,0,1.16,2.94,2.94,0,0,0,5.77.12l2.35-10.53a2.94,2.94,0,0,0-5.74-1.28Z"
                        style="fill:url(#linear-gradient-7)" />
                    <path
                        d="M650.46,490.55l-5.76-9.12a2.94,2.94,0,0,0-5.38,2.09,2.73,2.73,0,0,0,.41,1l5.75,9.13a2.94,2.94,0,1,0,5-3.14Z"
                        style="fill:url(#linear-gradient-8)" />
                    <path
                        d="M635.77,467.26,630,458.14a2.95,2.95,0,0,0-5.39,2.09,3,3,0,0,0,.41,1l5.76,9.12a2.94,2.94,0,1,0,5-3.14Z"
                        style="fill:url(#linear-gradient-9)" />
                    <path
                        d="M607.84,509.37a2.94,2.94,0,0,0-2.2-3.52l-10.52-2.42a2.94,2.94,0,0,0-3.53,2.2,3,3,0,0,0,0,1.19,2.93,2.93,0,0,0,2.23,2.34l10.52,2.42A2.93,2.93,0,0,0,607.84,509.37Z"
                        style="fill:url(#linear-gradient-10)" />
                    <path
                        d="M698.08,578.39a2.79,2.79,0,0,0,.39,1l5.62,9.21a2.94,2.94,0,1,0,5-3.08l-5.62-9.2a2.94,2.94,0,0,0-5.41,2.06Z"
                        style="fill:url(#linear-gradient-11)" />
                    <path
                        d="M700.24,531.13a2.94,2.94,0,0,0,2.16,3.56l10.47,2.56a2.94,2.94,0,1,0,1.4-5.71L703.8,529A3,3,0,0,0,700.24,531.13Z"
                        style="fill:url(#linear-gradient-12)" />
                    <path
                        d="M727,537.68a2.94,2.94,0,0,0,2.16,3.56l10.48,2.57a2.94,2.94,0,0,0,1.4-5.72l-10.48-2.57A3,3,0,0,0,727,537.68Z"
                        style="fill:url(#linear-gradient-13)" />
                    <path
                        d="M661.52,490a2.94,2.94,0,0,0,2.38-3.41l-6.81-37.72a2.94,2.94,0,1,0-5.79,1.05l6.81,37.71A2.93,2.93,0,0,0,661.52,490Z"
                        style="fill:url(#linear-gradient-14)" />
                    <path
                        d="M639.83,503.9a2.94,2.94,0,0,0-.74-4.1L607.61,478a3,3,0,0,0-4.09.74,2.88,2.88,0,0,0-.48,2.2,2.94,2.94,0,0,0,1.22,1.9l31.48,21.85A3,3,0,0,0,639.83,503.9Z"
                        style="fill:url(#linear-gradient-15)" />
                    <path
                        d="M694.71,544.53a2.94,2.94,0,0,0,1.22,1.89l31.48,21.85a2.94,2.94,0,1,0,3.36-4.83l-31.48-21.85a2.95,2.95,0,0,0-4.58,2.94Z"
                        style="fill:url(#linear-gradient-16)" />
                    <path
                        d="M283.18,345.77v77.16H206A154.36,154.36,0,1,0,360.34,577.25V268.61A77.17,77.17,0,0,0,283.18,345.77ZM225.3,652A77.17,77.17,0,1,1,206,500.09h77.16v77.16A77.2,77.2,0,0,1,225.3,652Z"
                        style="fill:url(#linear-gradient-17)" />
                    <rect x="262.86" y="422.93" width="20.58" height="77.16" style="fill:url(#linear-gradient-18)" />
                    <path d="M473.29,345.23H396.36V268.68a76.94,76.94,0,0,1,76.93,76.55Z"
                        style="fill:url(#linear-gradient-19)" />
                    <path
                        d="M473.25,381.07v265.6a77.16,77.16,0,0,1-77.15,77.17V458.22c0-1.09,0-2.17.06-3.26V381H473.1v.11Z"
                        style="fill:url(#linear-gradient-20)" />
                    <path
                        d="M1052.68,685.74a34.48,34.48,0,0,1-34.47,34.48H983.73a172.37,172.37,0,0,1,0-344.74h34.48a34.48,34.48,0,0,1,0,68.95H983.73a103.42,103.42,0,0,0,0,206.84h34.48A34.48,34.48,0,0,1,1052.68,685.74Z"
                        style="fill:url(#linear-gradient-21)" />
                    <path d="M1190.57,303V685.86a34.47,34.47,0,0,1-68.94,0V303a34.47,34.47,0,1,1,68.94,0Z"
                        style="fill:url(#linear-gradient-22)" />
                    <rect x="1259.52" y="375.48" width="68.95" height="344.73" rx="34.47"
                        style="fill:url(#linear-gradient-23)" />
                    <path
                        d="M1638.73,685.74a34.48,34.48,0,0,1-34.47,34.48h-34.48a172.37,172.37,0,0,1,0-344.74h34.48a34.48,34.48,0,0,1,0,68.95h-34.48a103.42,103.42,0,0,0,0,206.84h34.48A34.48,34.48,0,0,1,1638.73,685.74Z"
                        style="fill:url(#linear-gradient-24)" />
                    <path
                        d="M1948.29,616.62v69.29a34.48,34.48,0,1,1-69,0V619.34l-.46-2.72a103.42,103.42,0,0,0-101.55-87.84h-.7V685.91a34.48,34.48,0,1,1-69,0v-383a34.47,34.47,0,0,1,69,0V459.83h.4a103.42,103.42,0,0,0,94.11-61.37c.57-1.28,1.12-2.58,1.64-3.89a34.52,34.52,0,0,1,62.72,28.77,172.84,172.84,0,0,1-55.45,71,172.19,172.19,0,0,1,67.37,114.59Q1947.95,612.73,1948.29,616.62Z"
                        style="fill:url(#linear-gradient-25)" />
                    <path
                        d="M1797.2,457.75v73.07c-8.88-2.05-20.58-2.06-20.58-2.06V459.83h.69c1.44,0,4.93-.14,9-.47l.93-.09.26,0a95.1,95.1,0,0,0,9.52-1.44h.07Z"
                        style="fill:url(#linear-gradient-26)" />
                    <rect x="1259.52" y="268.5" width="68.95" height="68.95" rx="34.47"
                        style="fill:url(#linear-gradient-27)" />
                </svg>