<svg xmlns="http://www.w3.org/2000/svg" xmlns:xlink="http://www.w3.org/1999/xlink" viewBox="0 0 3916.58 585.38"><defs><linearGradient id="linear-gradient" x1="628.06" y1="513.66" x2="628.06" y2="648.64" gradientUnits="userSpaceOnUse"><stop offset="0" stop-color="#e5213c"/><stop offset="0.09" stop-color="#ce2033"/><stop offset="0.19" stop-color="#bb202b"/><stop offset="0.31" stop-color="#ad1f26"/><stop offset="0.47" stop-color="#a51f23"/><stop offset="0.75" stop-color="#a31f22"/></linearGradient><linearGradient id="linear-gradient-2" x1="722.42" y1="506.85" x2="722.42" y2="519.55" gradientUnits="userSpaceOnUse"><stop offset="0.2" stop-color="#220061"/><stop offset="1" stop-color="#03004a"/></linearGradient><linearGradient id="linear-gradient-3" x1="702.91" y1="494.59" x2="702.91" y2="506.3" xlink:href="#linear-gradient-2"/><linearGradient id="linear-gradient-4" x1="726.09" y1="479.74" x2="726.09" y2="491.45" xlink:href="#linear-gradient-2"/><linearGradient id="linear-gradient-5" x1="699.49" y1="458.74" x2="699.49" y2="496.03" xlink:href="#linear-gradient-2"/><linearGradient id="linear-gradient-6" x1="676.66" y1="473.88" x2="676.66" y2="490.3" xlink:href="#linear-gradient-2"/><linearGradient id="linear-gradient-7" x1="682.64" y1="447" x2="682.64" y2="463.42" xlink:href="#linear-gradient-2"/><linearGradient id="linear-gradient-8" x1="645.09" y1="480.05" x2="645.09" y2="495.06" xlink:href="#linear-gradient-2"/><linearGradient id="linear-gradient-9" x1="630.41" y1="456.76" x2="630.41" y2="471.78" xlink:href="#linear-gradient-2"/><linearGradient id="linear-gradient-10" x1="599.72" y1="503.35" x2="599.72" y2="511.66" xlink:href="#linear-gradient-2"/><linearGradient id="linear-gradient-11" x1="703.79" y1="574.92" x2="703.79" y2="590.01" xlink:href="#linear-gradient-2"/><linearGradient id="linear-gradient-12" x1="708.33" y1="528.89" x2="708.33" y2="537.34" xlink:href="#linear-gradient-2"/><linearGradient id="linear-gradient-13" x1="735.08" y1="535.44" x2="735.08" y2="543.89" xlink:href="#linear-gradient-2"/><linearGradient id="linear-gradient-14" x1="657.6" y1="446.4" x2="657.6" y2="490" xlink:href="#linear-gradient-2"/><linearGradient id="linear-gradient-15" x1="621.67" y1="477.43" x2="621.67" y2="505.16" xlink:href="#linear-gradient-2"/><linearGradient id="linear-gradient-16" x1="713.35" y1="541.06" x2="713.35" y2="568.8" xlink:href="#linear-gradient-2"/><linearGradient id="linear-gradient-17" x1="96.91" y1="686.36" x2="437.5" y2="345.77" gradientUnits="userSpaceOnUse"><stop offset="0" stop-color="#e5213c"/><stop offset="0.22" stop-color="#df213a"/><stop offset="0.51" stop-color="#cf2033"/><stop offset="0.83" stop-color="#b42029"/><stop offset="1" stop-color="#a31f22"/></linearGradient><linearGradient id="linear-gradient-18" x1="211.15" y1="202.98" x2="231.72" y2="202.98" gradientUnits="userSpaceOnUse"><stop offset="0" stop-color="#e5213c" stop-opacity="0"/><stop offset="0.06" stop-color="#de203a" stop-opacity="0.08"/><stop offset="0.34" stop-color="#ba1d2e" stop-opacity="0.47"/><stop offset="0.59" stop-color="#a11a26" stop-opacity="0.76"/><stop offset="0.78" stop-color="#911921" stop-opacity="0.94"/><stop offset="0.9" stop-color="#8b181f"/></linearGradient><linearGradient id="linear-gradient-19" x1="1724.49" y1="997.65" x2="1784.88" y2="1044.83" gradientTransform="translate(1446.51 -1435.49) rotate(90)" xlink:href="#linear-gradient"/><linearGradient id="linear-gradient-20" x1="514.04" y1="650.46" x2="335.55" y2="430.04" gradientUnits="userSpaceOnUse"><stop offset="0" stop-color="#e5213c"/><stop offset="0.19" stop-color="#de2139"/><stop offset="0.47" stop-color="#cb2032"/><stop offset="0.8" stop-color="#ab1f25"/><stop offset="0.88" stop-color="#a31f22"/></linearGradient><linearGradient id="linear-gradient-21" x1="2648.06" y1="513.66" x2="2648.06" y2="648.64" xlink:href="#linear-gradient"/><linearGradient id="linear-gradient-22" x1="2742.42" y1="506.85" x2="2742.42" y2="519.55" gradientUnits="userSpaceOnUse"><stop offset="0" stop-color="#fff"/><stop offset="0.8" stop-color="#edf2f4"/></linearGradient><linearGradient id="linear-gradient-23" x1="2722.91" y1="494.59" x2="2722.91" y2="506.3" xlink:href="#linear-gradient-22"/><linearGradient id="linear-gradient-24" x1="2746.09" y1="479.74" x2="2746.09" y2="491.45" xlink:href="#linear-gradient-22"/><linearGradient id="linear-gradient-25" x1="2719.49" y1="458.74" x2="2719.49" y2="496.03" xlink:href="#linear-gradient-22"/><linearGradient id="linear-gradient-26" x1="2696.66" y1="473.88" x2="2696.66" y2="490.3" xlink:href="#linear-gradient-22"/><linearGradient id="linear-gradient-27" x1="2702.64" y1="447" x2="2702.64" y2="463.42" xlink:href="#linear-gradient-22"/><linearGradient id="linear-gradient-28" x1="2665.09" y1="480.05" x2="2665.09" y2="495.06" xlink:href="#linear-gradient-22"/><linearGradient id="linear-gradient-29" x1="2650.41" y1="456.76" x2="2650.41" y2="471.78" xlink:href="#linear-gradient-22"/><linearGradient id="linear-gradient-30" x1="2619.72" y1="503.35" x2="2619.72" y2="511.66" xlink:href="#linear-gradient-22"/><linearGradient id="linear-gradient-31" x1="2723.79" y1="574.92" x2="2723.79" y2="590.01" xlink:href="#linear-gradient-22"/><linearGradient id="linear-gradient-32" x1="2728.33" y1="528.89" x2="2728.33" y2="537.34" xlink:href="#linear-gradient-22"/><linearGradient id="linear-gradient-33" x1="2755.08" y1="535.44" x2="2755.08" y2="543.89" xlink:href="#linear-gradient-22"/><linearGradient id="linear-gradient-34" x1="2677.6" y1="446.4" x2="2677.6" y2="490" xlink:href="#linear-gradient-22"/><linearGradient id="linear-gradient-35" x1="2641.67" y1="477.43" x2="2641.67" y2="505.16" xlink:href="#linear-gradient-22"/><linearGradient id="linear-gradient-36" x1="2733.35" y1="541.06" x2="2733.35" y2="568.8" xlink:href="#linear-gradient-22"/><linearGradient id="linear-gradient-37" x1="2116.91" y1="686.36" x2="2457.5" y2="345.77" xlink:href="#linear-gradient-17"/><linearGradient id="linear-gradient-38" x1="2231.15" y1="202.98" x2="2251.72" y2="202.98" xlink:href="#linear-gradient-18"/><linearGradient id="linear-gradient-39" x1="1724.49" y1="-1022.35" x2="1784.88" y2="-975.17" gradientTransform="translate(1446.51 -1435.49) rotate(90)" xlink:href="#linear-gradient"/><linearGradient id="linear-gradient-40" x1="2534.04" y1="650.46" x2="2355.55" y2="430.04" xlink:href="#linear-gradient-20"/><linearGradient id="linear-gradient-41" x1="2831.36" y1="547.85" x2="3072.68" y2="547.85" xlink:href="#linear-gradient-22"/><linearGradient id="linear-gradient-42" x1="3141.63" y1="494.41" x2="3210.57" y2="494.41" xlink:href="#linear-gradient-22"/><linearGradient id="linear-gradient-43" x1="3227.81" y1="289.32" x2="3296.76" y2="289.32" xlink:href="#linear-gradient-22"/><linearGradient id="linear-gradient-44" x1="3417.42" y1="547.85" x2="3658.73" y2="547.85" xlink:href="#linear-gradient-22"/><linearGradient id="linear-gradient-45" x1="3727.68" y1="494.41" x2="3968.29" y2="494.41" xlink:href="#linear-gradient-22"/><linearGradient id="linear-gradient-46" x1="3796.62" y1="494.28" x2="3817.2" y2="494.28" gradientUnits="userSpaceOnUse"><stop offset="0"/><stop offset="0.1" stop-color="#252626"/><stop offset="0.31" stop-color="#6d6f70"/><stop offset="0.49" stop-color="#a6a9aa"/><stop offset="0.65" stop-color="#cfd3d4"/><stop offset="0.78" stop-color="#e9eded"/><stop offset="0.85" stop-color="#f2f6f7"/></linearGradient><linearGradient id="linear-gradient-47" x1="3227.81" y1="44.44" x2="3296.76" y2="44.44" xlink:href="#linear-gradient-22"/><linearGradient id="linear-gradient-48" x1="1662.91" y1="612.43" x2="1968.33" y2="612.43" gradientUnits="userSpaceOnUse"><stop offset="0" stop-color="#03004a"/><stop offset="0.8" stop-color="#220061"/></linearGradient><linearGradient id="linear-gradient-49" x1="811.36" y1="490" x2="1163.15" y2="490" xlink:href="#linear-gradient-48"/><linearGradient id="linear-gradient-50" x1="1196.78" y1="490" x2="1267.41" y2="490" xlink:href="#linear-gradient-48"/><linearGradient id="linear-gradient-51" x1="1292.37" y1="548.22" x2="1637.84" y2="548.22" xlink:href="#linear-gradient-48"/></defs><g id="Artboard_1" data-name="Artboard 1"><path d="M682.89,608.63c.49,17.94-22.59,25.64-33,11l-9.59-13.55-.15.2-25,33.66a21.57,21.57,0,0,1-34.64-25.7l23.37-31.5-16-3.11c-17.63-3.41-20.13-27.6-3.58-34.56l71.28-30a18.16,18.16,0,0,1,25.18,16.25Z" transform="translate(-51.71 -258.53)" style="fill:url(#linear-gradient)"/><path d="M700.67,517.13a3,3,0,0,0,3.42,2.37l37.71-6.81a2.94,2.94,0,1,0-1-5.79L703,513.71A2.94,2.94,0,0,0,700.67,517.13Z" transform="translate(-51.71 -258.53)" style="fill:url(#linear-gradient-2)"/><path d="M709,500a2.94,2.94,0,1,0-3.18-4.95l-9.08,5.82a2.92,2.92,0,0,0-1.31,3,2.68,2.68,0,0,0,.42,1.06,2.93,2.93,0,0,0,4.06.89Z" transform="translate(-51.71 -258.53)" style="fill:url(#linear-gradient-3)"/><path d="M720,486a3,3,0,0,0-1.31,3,3,3,0,0,0,.42,1.06,2.94,2.94,0,0,0,4.07.89l9.08-5.81a2.94,2.94,0,0,0-3.17-5Z" transform="translate(-51.71 -258.53)" style="fill:url(#linear-gradient-4)"/><path d="M686.09,491.4a3,3,0,0,0-.48,2.21,2.94,2.94,0,0,0,5.31,1.16l22-31.4a2.94,2.94,0,1,0-4.82-3.37Z" transform="translate(-51.71 -258.53)" style="fill:url(#linear-gradient-5)"/><path d="M678.35,488l2.35-10.53a2.94,2.94,0,0,0-5.74-1.28l-2.35,10.53a3,3,0,0,0,0,1.16,2.94,2.94,0,0,0,5.77.12Z" transform="translate(-51.71 -258.53)" style="fill:url(#linear-gradient-6)"/><path d="M681,449.31l-2.35,10.53a3,3,0,0,0,0,1.16,2.94,2.94,0,0,0,5.77.12l2.35-10.53a2.94,2.94,0,0,0-5.74-1.28Z" transform="translate(-51.71 -258.53)" style="fill:url(#linear-gradient-7)"/><path d="M650.46,490.55l-5.76-9.12a2.94,2.94,0,0,0-5.38,2.09,2.73,2.73,0,0,0,.41,1l5.75,9.13a2.94,2.94,0,1,0,5-3.14Z" transform="translate(-51.71 -258.53)" style="fill:url(#linear-gradient-8)"/><path d="M635.77,467.26,630,458.14a2.95,2.95,0,0,0-5.39,2.09,3,3,0,0,0,.41,1l5.76,9.12a2.94,2.94,0,1,0,5-3.14Z" transform="translate(-51.71 -258.53)" style="fill:url(#linear-gradient-9)"/><path d="M607.84,509.37a2.94,2.94,0,0,0-2.2-3.52l-10.52-2.42a2.94,2.94,0,0,0-3.53,2.2,3,3,0,0,0,0,1.19,2.93,2.93,0,0,0,2.23,2.34l10.52,2.42A2.93,2.93,0,0,0,607.84,509.37Z" transform="translate(-51.71 -258.53)" style="fill:url(#linear-gradient-10)"/><path d="M698.08,578.39a2.79,2.79,0,0,0,.39,1l5.62,9.21a2.94,2.94,0,1,0,5-3.08l-5.62-9.2a2.94,2.94,0,0,0-5.41,2.06Z" transform="translate(-51.71 -258.53)" style="fill:url(#linear-gradient-11)"/><path d="M700.24,531.13a2.94,2.94,0,0,0,2.16,3.56l10.47,2.56a2.94,2.94,0,1,0,1.4-5.71L703.8,529A3,3,0,0,0,700.24,531.13Z" transform="translate(-51.71 -258.53)" style="fill:url(#linear-gradient-12)"/><path d="M727,537.68a2.94,2.94,0,0,0,2.16,3.56l10.48,2.57a2.94,2.94,0,0,0,1.4-5.72l-10.48-2.57A3,3,0,0,0,727,537.68Z" transform="translate(-51.71 -258.53)" style="fill:url(#linear-gradient-13)"/><path d="M661.52,490a2.94,2.94,0,0,0,2.38-3.41l-6.81-37.72a2.94,2.94,0,1,0-5.79,1.05l6.81,37.71A2.93,2.93,0,0,0,661.52,490Z" transform="translate(-51.71 -258.53)" style="fill:url(#linear-gradient-14)"/><path d="M639.83,503.9a2.94,2.94,0,0,0-.74-4.1L607.61,478a3,3,0,0,0-4.09.74,2.88,2.88,0,0,0-.48,2.2,2.94,2.94,0,0,0,1.22,1.9l31.48,21.85A3,3,0,0,0,639.83,503.9Z" transform="translate(-51.71 -258.53)" style="fill:url(#linear-gradient-15)"/><path d="M694.71,544.53a2.94,2.94,0,0,0,1.22,1.89l31.48,21.85a2.94,2.94,0,1,0,3.36-4.83l-31.48-21.85a2.95,2.95,0,0,0-4.58,2.94Z" transform="translate(-51.71 -258.53)" style="fill:url(#linear-gradient-16)"/><path d="M283.18,345.77v77.16H206A154.36,154.36,0,1,0,360.34,577.25V268.61A77.17,77.17,0,0,0,283.18,345.77ZM225.3,652A77.17,77.17,0,1,1,206,500.09h77.16v77.16A77.2,77.2,0,0,1,225.3,652Z" transform="translate(-51.71 -258.53)" style="fill:url(#linear-gradient-17)"/><rect x="211.15" y="164.4" width="20.58" height="77.16" style="fill:url(#linear-gradient-18)"/><path d="M473.29,345.23H396.36V268.68a76.94,76.94,0,0,1,76.93,76.55Z" transform="translate(-51.71 -258.53)" style="fill:url(#linear-gradient-19)"/><path d="M473.25,381.07v265.6a77.16,77.16,0,0,1-77.15,77.17V458.22c0-1.09,0-2.17.06-3.26V381H473.1v.11Z" transform="translate(-51.71 -258.53)" style="fill:url(#linear-gradient-20)"/></g><g id="Layer_2" data-name="Layer 2"><path d="M2702.89,608.63c.49,17.94-22.59,25.64-33,11l-9.59-13.55-.15.2-25,33.66a21.57,21.57,0,0,1-34.64-25.7l23.37-31.5-16-3.11c-17.63-3.41-20.13-27.6-3.58-34.56l71.28-30a18.16,18.16,0,0,1,25.18,16.25Z" transform="translate(-51.71 -258.53)" style="fill:url(#linear-gradient-21)"/><path d="M2720.67,517.13a3,3,0,0,0,3.42,2.37l37.71-6.81a2.94,2.94,0,0,0-1.05-5.79L2723,513.71A2.94,2.94,0,0,0,2720.67,517.13Z" transform="translate(-51.71 -258.53)" style="fill:url(#linear-gradient-22)"/><path d="M2729,500a2.94,2.94,0,1,0-3.18-4.95l-9.08,5.82a2.92,2.92,0,0,0-1.31,3,2.68,2.68,0,0,0,.42,1.06,2.93,2.93,0,0,0,4.06.89Z" transform="translate(-51.71 -258.53)" style="fill:url(#linear-gradient-23)"/><path d="M2740,486a3,3,0,0,0-1.31,3,3,3,0,0,0,.42,1.06,2.94,2.94,0,0,0,4.07.89l9.08-5.81a2.94,2.94,0,0,0-3.17-5Z" transform="translate(-51.71 -258.53)" style="fill:url(#linear-gradient-24)"/><path d="M2706.09,491.4a3,3,0,0,0-.48,2.21,2.94,2.94,0,0,0,5.31,1.16l22-31.4a2.94,2.94,0,1,0-4.82-3.37Z" transform="translate(-51.71 -258.53)" style="fill:url(#linear-gradient-25)"/><path d="M2698.35,488l2.35-10.53a2.94,2.94,0,0,0-5.74-1.28l-2.35,10.53a3,3,0,0,0,0,1.16,2.94,2.94,0,0,0,5.77.12Z" transform="translate(-51.71 -258.53)" style="fill:url(#linear-gradient-26)"/><path d="M2701,449.31l-2.35,10.53a3,3,0,0,0,0,1.16,2.94,2.94,0,0,0,5.77.12l2.35-10.53a2.94,2.94,0,0,0-5.74-1.28Z" transform="translate(-51.71 -258.53)" style="fill:url(#linear-gradient-27)"/><path d="M2670.46,490.55l-5.76-9.12a2.94,2.94,0,0,0-5.38,2.09,2.73,2.73,0,0,0,.41,1l5.75,9.13a2.94,2.94,0,1,0,5-3.14Z" transform="translate(-51.71 -258.53)" style="fill:url(#linear-gradient-28)"/><path d="M2655.77,467.26l-5.75-9.12a2.95,2.95,0,0,0-5.39,2.09,3,3,0,0,0,.41,1l5.76,9.12a2.94,2.94,0,1,0,5-3.14Z" transform="translate(-51.71 -258.53)" style="fill:url(#linear-gradient-29)"/><path d="M2627.84,509.37a2.94,2.94,0,0,0-2.2-3.52l-10.52-2.42a2.94,2.94,0,0,0-3.53,2.2,3,3,0,0,0,0,1.19,2.93,2.93,0,0,0,2.23,2.34l10.52,2.42A2.93,2.93,0,0,0,2627.84,509.37Z" transform="translate(-51.71 -258.53)" style="fill:url(#linear-gradient-30)"/><path d="M2718.08,578.39a2.79,2.79,0,0,0,.39,1l5.62,9.21a2.94,2.94,0,0,0,5-3.08l-5.62-9.2a2.94,2.94,0,0,0-5.41,2.06Z" transform="translate(-51.71 -258.53)" style="fill:url(#linear-gradient-31)"/><path d="M2720.24,531.13a2.94,2.94,0,0,0,2.16,3.56l10.47,2.56a2.94,2.94,0,1,0,1.4-5.71L2723.8,529A3,3,0,0,0,2720.24,531.13Z" transform="translate(-51.71 -258.53)" style="fill:url(#linear-gradient-32)"/><path d="M2747,537.68a2.94,2.94,0,0,0,2.16,3.56l10.48,2.57a2.94,2.94,0,0,0,1.4-5.72l-10.48-2.57A3,3,0,0,0,2747,537.68Z" transform="translate(-51.71 -258.53)" style="fill:url(#linear-gradient-33)"/><path d="M2681.52,490a2.94,2.94,0,0,0,2.38-3.41l-6.81-37.72a2.94,2.94,0,1,0-5.79,1.05l6.81,37.71A2.93,2.93,0,0,0,2681.52,490Z" transform="translate(-51.71 -258.53)" style="fill:url(#linear-gradient-34)"/><path d="M2659.83,503.9a2.94,2.94,0,0,0-.74-4.1L2627.61,478a3,3,0,0,0-4.09.74,2.88,2.88,0,0,0-.48,2.2,2.94,2.94,0,0,0,1.22,1.9l31.48,21.85A3,3,0,0,0,2659.83,503.9Z" transform="translate(-51.71 -258.53)" style="fill:url(#linear-gradient-35)"/><path d="M2714.71,544.53a2.94,2.94,0,0,0,1.22,1.89l31.48,21.85a2.94,2.94,0,1,0,3.36-4.83l-31.48-21.85a2.95,2.95,0,0,0-4.58,2.94Z" transform="translate(-51.71 -258.53)" style="fill:url(#linear-gradient-36)"/><path d="M2303.18,345.77v77.16H2226a154.36,154.36,0,1,0,154.32,154.32V268.61A77.17,77.17,0,0,0,2303.18,345.77ZM2245.3,652A77.17,77.17,0,1,1,2226,500.09h77.16v77.16A77.2,77.2,0,0,1,2245.3,652Z" transform="translate(-51.71 -258.53)" style="fill:url(#linear-gradient-37)"/><rect x="2231.15" y="164.4" width="20.58" height="77.16" style="fill:url(#linear-gradient-38)"/><path d="M2493.29,345.23h-76.93V268.68a76.94,76.94,0,0,1,76.93,76.55Z" transform="translate(-51.71 -258.53)" style="fill:url(#linear-gradient-39)"/><path d="M2493.25,381.07v265.6a77.16,77.16,0,0,1-77.15,77.17V458.22c0-1.09,0-2.17.06-3.26V381h76.94v.11Z" transform="translate(-51.71 -258.53)" style="fill:url(#linear-gradient-40)"/><path d="M3072.68,685.74a34.48,34.48,0,0,1-34.47,34.48h-34.48a172.37,172.37,0,1,1,0-344.74h34.48a34.48,34.48,0,0,1,0,68.95h-34.48a103.42,103.42,0,0,0,0,206.84h34.48A34.48,34.48,0,0,1,3072.68,685.74Z" transform="translate(-51.71 -258.53)" style="fill:url(#linear-gradient-41)"/><path d="M3210.57,303V685.86a34.47,34.47,0,0,1-68.94,0V303a34.47,34.47,0,1,1,68.94,0Z" transform="translate(-51.71 -258.53)" style="fill:url(#linear-gradient-42)"/><rect x="3227.81" y="116.95" width="68.95" height="344.73" rx="34.47" style="fill:url(#linear-gradient-43)"/><path d="M3658.73,685.74a34.48,34.48,0,0,1-34.47,34.48h-34.48a172.37,172.37,0,0,1,0-344.74h34.48a34.48,34.48,0,0,1,0,68.95h-34.48a103.42,103.42,0,0,0,0,206.84h34.48A34.48,34.48,0,0,1,3658.73,685.74Z" transform="translate(-51.71 -258.53)" style="fill:url(#linear-gradient-44)"/><path d="M3968.29,616.62v69.29a34.48,34.48,0,1,1-68.95,0V619.34l-.46-2.72a103.42,103.42,0,0,0-101.55-87.84h-.7V685.91a34.48,34.48,0,1,1-69,0v-383a34.48,34.48,0,0,1,69,0V459.83h.4a103.42,103.42,0,0,0,94.11-61.37c.57-1.28,1.12-2.58,1.64-3.89a34.52,34.52,0,0,1,62.72,28.77,172.84,172.84,0,0,1-55.45,71,172.19,172.19,0,0,1,67.37,114.59Q3967.95,612.73,3968.29,616.62Z" transform="translate(-51.71 -258.53)" style="fill:url(#linear-gradient-45)"/><path d="M3817.2,457.75v73.07c-8.88-2.05-20.58-2.06-20.58-2.06V459.83h.69c1.44,0,4.93-.14,9-.47l.93-.09.26,0a95.1,95.1,0,0,0,9.52-1.44h.07Z" transform="translate(-51.71 -258.53)" style="fill:url(#linear-gradient-46)"/><rect x="3227.81" y="9.97" width="68.95" height="68.95" rx="34.47" style="fill:url(#linear-gradient-47)"/><path d="M1937.79,381a30.53,30.53,0,0,0-30.54,30.53,152.7,152.7,0,1,0,0,244.36V691.2a91.64,91.64,0,0,1-91.63,91.63,30.54,30.54,0,0,0,0,61.08A152.71,152.71,0,0,0,1968.33,691.2V411.5A30.55,30.55,0,0,0,1937.79,381ZM1815.62,625.29a91.63,91.63,0,1,1,91.63-91.62A91.62,91.62,0,0,1,1815.62,625.29Z" transform="translate(-51.71 -258.53)" style="fill:url(#linear-gradient-48)"/><path d="M987.26,369.69a175.19,175.19,0,0,0-105.54,35.16V293.7a35.18,35.18,0,0,0-70.36,0V545.58a175.9,175.9,0,1,0,175.9-175.89Zm0,281.43A105.54,105.54,0,0,1,881.72,545.58v-.23A105.54,105.54,0,1,1,987.26,651.12Z" transform="translate(-51.71 -258.53)" style="fill:url(#linear-gradient-49)"/><path d="M1267.41,293.87V686.13a35.32,35.32,0,1,1-70.63,0V293.87a35.32,35.32,0,1,1,70.63,0Z" transform="translate(-51.71 -258.53)" style="fill:url(#linear-gradient-50)"/><path d="M1465.1,375.48a172.74,172.74,0,1,0,172.74,172.74A172.73,172.73,0,0,0,1465.1,375.48Zm0,276.38a103.65,103.65,0,1,1,103.65-103.64A103.64,103.64,0,0,1,1465.1,651.86Z" transform="translate(-51.71 -258.53)" style="fill:url(#linear-gradient-51)"/></g></svg>