<svg xmlns="http://www.w3.org/2000/svg" xmlns:xlink="http://www.w3.org/1999/xlink" viewBox="0 0 1415.03 1553.95"><defs><style>.cls-1{fill:url(#linear-gradient);}.cls-2{fill:url(#linear-gradient-2);}.cls-3{fill:url(#linear-gradient-3);}.cls-4{fill:url(#linear-gradient-4);}</style><linearGradient id="linear-gradient" x1="443.74" y1="574.71" x2="1586.96" y2="1717.94" gradientTransform="matrix(1, 0, 0, -1, -292, 1977)" gradientUnits="userSpaceOnUse"><stop offset="0" stop-color="#ec1a3a"/><stop offset="0.21" stop-color="#e61a38"/><stop offset="0.48" stop-color="#d61b33"/><stop offset="0.79" stop-color="#bb1d2a"/><stop offset="1" stop-color="#a41e22"/></linearGradient><linearGradient id="linear-gradient-2" x1="708.73" y1="1338.56" x2="777.79" y2="1338.56" gradientTransform="matrix(1, 0, 0, -1, 0, 1986)" gradientUnits="userSpaceOnUse"><stop offset="0" stop-color="#ec1a3a" stop-opacity="0"/><stop offset="0.06" stop-color="#e41a38" stop-opacity="0.08"/><stop offset="0.34" stop-color="#be192d" stop-opacity="0.47"/><stop offset="0.59" stop-color="#a21825" stop-opacity="0.76"/><stop offset="0.78" stop-color="#911820" stop-opacity="0.94"/><stop offset="0.9" stop-color="#8b181e"/></linearGradient><linearGradient id="linear-gradient-3" x1="-271.29" y1="1962.69" x2="-68.61" y2="1804.35" gradientTransform="matrix(0, 1, 1, 0, -629.69, 339.71)" gradientUnits="userSpaceOnUse"><stop offset="0" stop-color="#ec1a3a"/><stop offset="0.01" stop-color="#e81a39"/><stop offset="0.1" stop-color="#cf1c30"/><stop offset="0.21" stop-color="#bc1d2a"/><stop offset="0.32" stop-color="#ae1d25"/><stop offset="0.47" stop-color="#a61e23"/><stop offset="0.75" stop-color="#a41e22"/></linearGradient><linearGradient id="linear-gradient-4" x1="1843.78" y1="695.37" x2="1244.71" y2="1435.17" gradientTransform="matrix(1, 0, 0, -1, -292, 1977)" gradientUnits="userSpaceOnUse"><stop offset="0" stop-color="#ec1a3a"/><stop offset="0.18" stop-color="#e51a38"/><stop offset="0.44" stop-color="#d21b31"/><stop offset="0.76" stop-color="#b21d27"/><stop offset="0.88" stop-color="#a41e22"/></linearGradient></defs><g id="Layer_2" data-name="Layer 2"><g id="Layer_1-2" data-name="Layer 1"><path class="cls-1" d="M777,259V518H518C232,518,0,749.9,0,1036s231.91,518,518,518c285.9.16,517.79-231.47,518-517.37V0C892.9,0,777,116,777,259ZM582.68,1286.73a259.14,259.14,0,0,1-64.71,8.15c-143,0-259-116-259-259s116-259,259-259H777v259C777,1156.58,694.39,1258,582.68,1286.73Z"/><rect class="cls-2" x="708.73" y="517.95" width="69.06" height="258.98"/><path class="cls-3" d="M1415,257.15H1156.8V.24c142.1,0,257.49,114.81,258.21,256.91Z"/><path class="cls-4" d="M1414.89,377.46v891.47c0,143-115.93,259-259,259V636.42c0-3.67.08-7.32.22-10.95V377.08h258.22v.38Z"/></g></g></svg>