<svg id="Layer_1" data-name="Layer 1" xmlns="http://www.w3.org/2000/svg" xmlns:xlink="http://www.w3.org/1999/xlink" viewBox="0 0 1415.23 1986.06"><defs><style>.cls-1{fill:url(#linear-gradient);}.cls-2{fill:url(#linear-gradient-2);}.cls-3{fill:url(#linear-gradient-3);}.cls-4{fill:url(#linear-gradient-4);}.cls-5{fill:url(#linear-gradient-5);}.cls-6{fill:url(#linear-gradient-6);}.cls-7{fill:url(#linear-gradient-7);}.cls-8{fill:url(#linear-gradient-8);}.cls-9{fill:url(#linear-gradient-9);}.cls-10{fill:url(#linear-gradient-10);}.cls-11{fill:url(#linear-gradient-11);}</style><linearGradient id="linear-gradient" x1="925.32" y1="1871.72" x2="925.93" y2="1871.72" gradientUnits="userSpaceOnUse"><stop offset="0" stop-color="#ec1a3a"/><stop offset="0.32" stop-color="#e91a39"/><stop offset="0.53" stop-color="#e11b36"/><stop offset="0.71" stop-color="#d21b31"/><stop offset="0.86" stop-color="#bd1d2a"/><stop offset="1" stop-color="#a41e22"/></linearGradient><linearGradient id="linear-gradient-2" x1="443.93" y1="1411.14" x2="1587.1" y2="267.97" gradientUnits="userSpaceOnUse"><stop offset="0" stop-color="#ec1a3a"/><stop offset="0.21" stop-color="#e61a38"/><stop offset="0.48" stop-color="#d61b33"/><stop offset="0.79" stop-color="#bb1d2a"/><stop offset="1" stop-color="#a41e22"/></linearGradient><linearGradient id="linear-gradient-3" x1="708.93" y1="647.44" x2="777.99" y2="647.44" gradientUnits="userSpaceOnUse"><stop offset="0" stop-color="#ec1a3a" stop-opacity="0"/><stop offset="0.06" stop-color="#e41a38" stop-opacity="0.08"/><stop offset="0.34" stop-color="#be192d" stop-opacity="0.47"/><stop offset="0.59" stop-color="#a21825" stop-opacity="0.76"/><stop offset="0.78" stop-color="#911820" stop-opacity="0.94"/><stop offset="0.9" stop-color="#8b181e"/></linearGradient><linearGradient id="linear-gradient-4" x1="1012.92" y1="321.29" x2="1215.59" y2="479.63" gradientTransform="translate(1946.51 -935.49) rotate(90)" gradientUnits="userSpaceOnUse"><stop offset="0" stop-color="#ec1a3a"/><stop offset="0.01" stop-color="#e81a39"/><stop offset="0.1" stop-color="#cf1c30"/><stop offset="0.21" stop-color="#bc1d2a"/><stop offset="0.32" stop-color="#ae1d25"/><stop offset="0.47" stop-color="#a61e23"/><stop offset="0.75" stop-color="#a41e22"/></linearGradient><linearGradient id="linear-gradient-5" x1="1843.99" y1="1290.63" x2="1244.91" y2="550.83" gradientUnits="userSpaceOnUse"><stop offset="0" stop-color="#ec1a3a"/><stop offset="0.18" stop-color="#e51a38"/><stop offset="0.44" stop-color="#d21b31"/><stop offset="0.76" stop-color="#b21d27"/><stop offset="0.88" stop-color="#a41e22"/></linearGradient><linearGradient id="linear-gradient-6" x1="466.55" y1="1895.56" x2="365.54" y2="1678.94" xlink:href="#linear-gradient"/><linearGradient id="linear-gradient-7" x1="545.43" y1="1835" x2="756.63" y2="1835" xlink:href="#linear-gradient"/><linearGradient id="linear-gradient-8" x1="1010.06" y1="1780.53" x2="798.87" y2="1780.53" xlink:href="#linear-gradient"/><linearGradient id="linear-gradient-9" x1="1157.9" y1="1886.13" x2="1157.9" y2="1674.94" xlink:href="#linear-gradient"/><linearGradient id="linear-gradient-10" x1="1442.95" y1="1677.64" x2="1353.25" y2="1869.99" xlink:href="#linear-gradient"/><linearGradient id="linear-gradient-11" x1="1623.57" y1="1993.54" x2="1595.09" y2="1668.02" gradientUnits="userSpaceOnUse"><stop offset="0" stop-color="#ec1a3a"/><stop offset="0.21" stop-color="#e61a38"/><stop offset="0.48" stop-color="#d61b33"/><stop offset="0.78" stop-color="#bc1d2a"/><stop offset="1" stop-color="#a41e22"/></linearGradient></defs><path class="cls-1" d="M925.32,1871.72h0Z" transform="translate(-292 -9)"/><path class="cls-2" d="M1069.15,268V527h-259c-286,0-517.95,231.9-517.95,518s231.91,517.95,517.95,517.95a517.66,517.66,0,0,0,517.95-517.95V9C1185.1,9,1069.15,125,1069.15,268ZM874.88,1295.73a259.41,259.41,0,0,1-64.71,8.15c-143,0-259-116-259-259s115.95-259,259-259h259v259C1069.15,1165.58,986.59,1267,874.88,1295.73Z" transform="translate(-292 -9)"/><rect class="cls-3" x="708.93" y="517.95" width="69.06" height="258.98"/><path class="cls-4" d="M1707.23,266.15H1449V9.24a258.21,258.21,0,0,1,258.21,256.91Z" transform="translate(-292 -9)"/><path class="cls-5" d="M1707.09,386.46v891.47c0,143-115.93,259-258.95,259V645.42c0-3.67.08-7.32.22-10.95V386.08h258.22v.38Z" transform="translate(-292 -9)"/><path class="cls-6" d="M497,1681.12A21.12,21.12,0,0,0,461,1696.05a105.6,105.6,0,1,0,0,169,21.12,21.12,0,1,0,42.23,0v-169A21.05,21.05,0,0,0,497,1681.12ZM397.6,1843.89A63.36,63.36,0,1,1,461,1780.53,63.36,63.36,0,0,1,397.6,1843.89Z" transform="translate(-292 -9)"/><path class="cls-7" d="M735.51,1674.94a21.12,21.12,0,0,0-21.12,21.11,105.6,105.6,0,1,0,0,169v24.45A63.36,63.36,0,0,1,651,1952.83a21.12,21.12,0,1,0,0,42.23,105.59,105.59,0,0,0,105.6-105.59V1696.06A21.12,21.12,0,0,0,735.51,1674.94Zm-84.48,169a63.36,63.36,0,1,1,63.36-63.36A63.36,63.36,0,0,1,651,1843.89Z" transform="translate(-292 -9)"/><path class="cls-8" d="M1008,1759.41a105.62,105.62,0,1,0-103.49,126.72H946.7a21.12,21.12,0,0,0,0-42.24H904.46a63.39,63.39,0,0,1-59.75-42.24H988.94a21.12,21.12,0,0,0,21.12-21.12A106.54,106.54,0,0,0,1008,1759.41Zm-103.49-42.24a63.4,63.4,0,0,1,59.76,42.24H844.71A63.4,63.4,0,0,1,904.46,1717.17Z" transform="translate(-292 -9)"/><path class="cls-9" d="M1263.49,1780.53V1865a21.12,21.12,0,0,1-42.24,0v-84.48a63.36,63.36,0,1,0-126.71,0V1865a21.12,21.12,0,1,1-42.24,0v-84.48a106.82,106.82,0,0,1,.65-11.79,105.61,105.61,0,0,1,209.89,0A106.82,106.82,0,0,1,1263.49,1780.53Z" transform="translate(-292 -9)"/><path class="cls-10" d="M1453.57,1865a21.12,21.12,0,0,1-21.12,21.12h-21.12a105.6,105.6,0,1,1,0-211.19h21.12a21.12,21.12,0,1,1,0,42.23h-21.12a63.36,63.36,0,1,0,0,126.72h21.12A21.13,21.13,0,0,1,1453.57,1865Z" transform="translate(-292 -9)"/><path class="cls-11" d="M1707,1696.06v195.53a105.59,105.59,0,0,1-105.57,103.47h-1.88a21.12,21.12,0,1,1,0-42.23l.94,0h.94a63.36,63.36,0,0,0,63.32-61.26h0V1865a105.59,105.59,0,0,1-169-84.49v-84.47a21.12,21.12,0,1,1,42.23,0v84.51a63.36,63.36,0,1,0,126.72,0v-84.51a21.12,21.12,0,0,1,19.63-21.07h3A21.12,21.12,0,0,1,1707,1696.06Z" transform="translate(-292 -9)"/></svg>