<svg id="logo-Svg" data-name="Layer 1" xmlns="http://www.w3.org/2000/svg" xmlns:xlink="http://www.w3.org/1999/xlink" viewBox="0 0 1776.62 311.86">
                <defs>
                    <linearGradient id="linear-gradient" x1="123.83" y1="861.75" x2="1079.95" y2="1817.87" gradientUnits="userSpaceOnUse">
                        <stop offset="0" stop-color="#e31e26"></stop>
                        <stop offset="0.06" stop-color="#eb6223"></stop>
                        <stop offset="0.1" stop-color="#f19420"></stop>
                        <stop offset="0.16" stop-color="#d2c329"></stop>
                        <stop offset="0.2" stop-color="#c4d92d"></stop>
                        <stop offset="0.23" stop-color="#a9d034"></stop>
                        <stop offset="0.28" stop-color="#7cc240"></stop>
                        <stop offset="0.3" stop-color="#6bbd45"></stop>
                        <stop offset="0.33" stop-color="#6abd4c"></stop>
                        <stop offset="0.4" stop-color="#69be59"></stop>
                        <stop offset="0.43" stop-color="#68c28c"></stop>
                        <stop offset="0.46" stop-color="#67c6b5"></stop>
                        <stop offset="0.49" stop-color="#66c8ce"></stop>
                        <stop offset="0.5" stop-color="#66c9d7"></stop>
                        <stop offset="0.52" stop-color="#59aacb"></stop>
                        <stop offset="0.56" stop-color="#4b87be"></stop>
                        <stop offset="0.58" stop-color="#4272b6"></stop>
                        <stop offset="0.6" stop-color="#3f6ab3"></stop>
                        <stop offset="0.61" stop-color="#3f68b2"></stop>
                        <stop offset="0.66" stop-color="#4357a7"></stop>
                        <stop offset="0.7" stop-color="#4451a3"></stop>
                        <stop offset="0.7" stop-color="#4751a3"></stop>
                        <stop offset="0.73" stop-color="#6a50a1"></stop>
                        <stop offset="0.76" stop-color="#834fa0"></stop>
                        <stop offset="0.78" stop-color="#924f9f"></stop>
                        <stop offset="0.8" stop-color="#974f9f"></stop>
                        <stop offset="0.81" stop-color="#a34a9d"></stop>
                        <stop offset="0.83" stop-color="#c13c98"></stop>
                        <stop offset="0.86" stop-color="#d73294"></stop>
                        <stop offset="0.88" stop-color="#e42c92"></stop>
                        <stop offset="0.9" stop-color="#e82a91"></stop>
                        <stop offset="0.91" stop-color="#e92883"></stop>
                        <stop offset="0.92" stop-color="#ea2461"></stop>
                        <stop offset="0.94" stop-color="#eb2046"></stop>
                        <stop offset="0.96" stop-color="#ec1e33"></stop>
                        <stop offset="0.98" stop-color="#ed1c28"></stop>
                        <stop offset="1" stop-color="#ed1c24"></stop>
                    </linearGradient>
                    <linearGradient id="linear-gradient-2" x1="242.1" y1="743.47" x2="1198.22" y2="1699.6" xlink:href="#linear-gradient"></linearGradient>
                    <linearGradient id="linear-gradient-3" x1="327.65" y1="657.93" x2="1283.77" y2="1614.05" xlink:href="#linear-gradient"></linearGradient>
                    <linearGradient id="linear-gradient-4" x1="455.44" y1="530.13" x2="1411.56" y2="1486.25" xlink:href="#linear-gradient"></linearGradient>
                    <linearGradient id="linear-gradient-5" x1="593.23" y1="392.35" x2="1549.35" y2="1348.47" xlink:href="#linear-gradient"></linearGradient>
                    <linearGradient id="linear-gradient-6" x1="695.52" y1="290.05" x2="1651.64" y2="1246.18" xlink:href="#linear-gradient"></linearGradient>
                    <linearGradient id="linear-gradient-7" x1="780.54" y1="205.03" x2="1736.66" y2="1161.15" xlink:href="#linear-gradient"></linearGradient>
                    <linearGradient id="linear-gradient-8" x1="889.04" y1="96.54" x2="1845.16" y2="1052.66" xlink:href="#linear-gradient"></linearGradient>
                </defs>
                <g id="logo-Svg-21" style="transition-duration: 0.3s; transition-delay: 0.1s; opacity: 1; transform: rotate(0deg);">
                    <path id="logo-Svg-2-1" d="M189.94,1123.3a117,117,0,0,1-19.72-1.55,54.71,54.71,0,0,1-23.87-10,49.71,49.71,0,0,1-16.65-22.25c-2.87-7.4-4.25-15.85-4.25-25.86v-178c0-12.75,3.16-23.89,9.41-33.13a74.82,74.82,0,0,1,19.33-19.26l.46-.33.48-.31c10.31-6.65,22.85-11.93,37.25-15.69a181.91,181.91,0,0,1,45.78-5.42,173.53,173.53,0,0,1,50,7A118.83,118.83,0,0,1,332,842.11a111.88,111.88,0,0,1,29.42,40.64c6.81,15.73,10.26,34.15,10.26,54.76,0,19.36-2.89,36.88-8.59,52.08a111.32,111.32,0,0,1-26,40.7,107.1,107.1,0,0,1-40.78,25,147.89,147.89,0,0,1-47.82,7.57v49.07l-21.38,6.41a125.72,125.72,0,0,1-15.75,3.3A136.25,136.25,0,0,1,189.94,1123.3Z" transform="translate(-125.45 -811.44)" style="fill:url(#linear-gradient)"></path>
                </g>
                <g id="logo-Svg-22" style="transition-duration: 0.3s; transition-delay: 0.2s; opacity: 1; transform: rotate(0deg);">
                    <path id="logo-Svg-2-2" d="M407.3,1060.24a117.08,117.08,0,0,1-19.73-1.55,54.55,54.55,0,0,1-23.86-10,51,51,0,0,1-16.54-21.5c-3.18-7.56-4.74-16.28-4.74-26.6V889.29a61.39,61.39,0,0,1,6.49-28.4,64.35,64.35,0,0,1,16.83-20.48,95.69,95.69,0,0,1,21.34-12.82,180,180,0,0,1,22.43-8.23,189.42,189.42,0,0,1,24.71-5.53,171.16,171.16,0,0,1,26.11-2c17.79,0,32.84,4,44.72,11.83,15.4,10.18,23.86,27,23.86,47.47a66,66,0,0,1-2.71,18.7,77.13,77.13,0,0,1-6.15,15l-8.53,15.63h-17.8c-4.26,0-8.71.21-13.25.62s-8.83,1-13.06,1.82l-1.93.38v126l-21.38,6.42a112.42,112.42,0,0,1-16.15,3.2A150.16,150.16,0,0,1,407.3,1060.24Z" transform="translate(-125.45 -811.44)" style="fill:url(#linear-gradient-2)"></path>
                </g>
                <g id="logo-Svg-23" style="transition-duration: 0.3s; transition-delay: 0.3s; opacity: 1; transform: rotate(0deg);">
                    <path id="logo-Svg-2-3" d="M607.23,1063.21c-18.13,0-35-2.89-50.22-8.59A117.48,117.48,0,0,1,516,1029a115.31,115.31,0,0,1-26.83-40.72c-6.07-15.33-9.15-32.52-9.15-51.09,0-18.33,3.08-35.4,9.15-50.74A115.59,115.59,0,0,1,516,845.7,117.46,117.46,0,0,1,557,820c15.19-5.7,32.09-8.59,50.22-8.59s35.2,3,50.47,8.87a119.91,119.91,0,0,1,40.71,25.75,115.5,115.5,0,0,1,26.85,40.71,136.52,136.52,0,0,1,9.15,50.37c0,19-3.07,36.48-9.11,51.92a113.21,113.21,0,0,1-27,41,114.64,114.64,0,0,1-41.33,25.15C641.89,1060.51,625.16,1063.21,607.23,1063.21Zm0-142.43c-.87,1.63-2.64,6.19-2.64,16.36,0,10.58,1.92,15.17,2.71,16.6,1.33-2.73,2.57-8.21,2.57-16.6C609.87,927,608.1,922.42,607.23,920.78Z" transform="translate(-125.45 -811.44)" style="fill:url(#linear-gradient-3)"></path>
                </g>
                <g id="logo-Svg-24" style="transition-duration: 0.3s; transition-delay: 0.4s; opacity: 1; transform: rotate(0deg);">
                    <path id="logo-Svg-2-4" d="M982.23,1060.24a117.08,117.08,0,0,1-19.73-1.55,54.6,54.6,0,0,1-23.86-10,49.76,49.76,0,0,1-4.3-3.61v4.76l-22.12,6a129.07,129.07,0,0,1-15.79,3,147.33,147.33,0,0,1-20.28,1.4,117,117,0,0,1-19.73-1.55,54.7,54.7,0,0,1-23.87-10,53.42,53.42,0,0,1-4.3-3.62v4.16l-21.38,6.42a112.42,112.42,0,0,1-16.15,3.2,150.16,150.16,0,0,1-20.66,1.4,116.88,116.88,0,0,1-19.72-1.55,54.7,54.7,0,0,1-23.87-10,51.16,51.16,0,0,1-16.54-21.51c-3.18-7.56-4.73-16.28-4.73-26.6v-112c0-13.06,3.33-24.32,9.9-33.46a78.28,78.28,0,0,1,18.78-18.15c11-7.79,24.51-14.08,40.07-18.7a167.43,167.43,0,0,1,47.67-6.8,137,137,0,0,1,38.23,5.46,109.14,109.14,0,0,1,17.82,6.87,149.77,149.77,0,0,1,14.42-5.85c12.43-4.3,27-6.48,43.41-6.48A134.64,134.64,0,0,1,971,816.21a100.83,100.83,0,0,1,34.26,16.67A86.57,86.57,0,0,1,1031.17,865c6.14,12.84,9.25,28,9.25,45.06v139.16l-21.38,6.42a112.42,112.42,0,0,1-16.15,3.2A150.16,150.16,0,0,1,982.23,1060.24Z" transform="translate(-125.45 -811.44)" style="fill:url(#linear-gradient-4)"></path>
                </g>
                <g id="logo-Svg-25" style="transition-duration: 0.3s; transition-delay: 0.5s; opacity: 1; transform: rotate(0deg);">
                    <path id="logo-Svg-2-5" d="M1138.39,1063.21c-18.13,0-35-2.89-50.22-8.59a117.48,117.48,0,0,1-41-25.67,115.36,115.36,0,0,1-26.83-40.72c-6.07-15.33-9.15-32.52-9.15-51.09,0-18.33,3.08-35.4,9.15-50.74a115.39,115.39,0,0,1,26.84-40.7,117.33,117.33,0,0,1,41-25.67c15.19-5.7,32.09-8.59,50.22-8.59s35.2,3,50.47,8.87a120.05,120.05,0,0,1,40.72,25.75,115.61,115.61,0,0,1,26.84,40.71,136.52,136.52,0,0,1,9.15,50.37c0,19-3.06,36.48-9.11,51.92a113.21,113.21,0,0,1-27,41,114.64,114.64,0,0,1-41.33,25.15C1173.05,1060.51,1156.33,1063.21,1138.39,1063.21Zm0-142.43c-.87,1.63-2.64,6.19-2.64,16.36,0,10.58,1.92,15.16,2.71,16.6,1.33-2.72,2.57-8.21,2.57-16.6C1141,927,1139.26,922.42,1138.39,920.78Z" transform="translate(-125.45 -811.44)" style="fill:url(#linear-gradient-5)"></path>
                </g>
                <g id="logo-Svg-26" style="transition-duration: 0.3s; transition-delay: 0.6s; opacity: 1; transform: rotate(0deg);">
                    <path id="logo-Svg-2-6" d="M1344.25,1063.21a185.68,185.68,0,0,1-42.28-4.51,114,114,0,0,1-36.68-15.25,80.87,80.87,0,0,1-27.46-29.91c-6.39-12-9.63-25.73-9.63-40.79,0-31,12.68-49.86,23.85-60.44a63.2,63.2,0,0,1-6.37-10.46,62.13,62.13,0,0,1-6.36-27.4c0-13.43,3.8-24.94,11.29-34.23,6.21-7.7,14.93-14,25.93-18.62l.53-.22.54-.2a141.72,141.72,0,0,1,32.26-7.65,252.07,252.07,0,0,1,31.41-2.09,183.38,183.38,0,0,1,43.73,4.95c14.67,3.64,27.6,9.4,38.44,17.14a86.2,86.2,0,0,1,27.46,32.29c6.23,12.67,9.39,27.3,9.39,43.5v83.09c0,13.69-4.43,26-12.83,35.55a83.72,83.72,0,0,1-19.9,16.5C1406.54,1057.08,1379.29,1063.21,1344.25,1063.21Z" transform="translate(-125.45 -811.44)" style="fill:url(#linear-gradient-6)"></path>
                </g>
                <g id="logo-Svg-27" style="transition-duration: 0.3s; transition-delay: 0.7s; opacity: 1; transform: rotate(0deg);">
                    <path id="logo-Svg-2-7" d="M1503.37,1123.3a117,117,0,0,1-19.72-1.55,54.71,54.71,0,0,1-23.87-10,49.73,49.73,0,0,1-16.65-22.25c-2.86-7.4-4.25-15.85-4.25-25.86v-178c0-12.75,3.17-23.89,9.41-33.13a75,75,0,0,1,19.33-19.26l.47-.33.47-.31c10.32-6.65,22.85-11.93,37.26-15.69a181.77,181.77,0,0,1,45.77-5.42,173.53,173.53,0,0,1,50,7,118.83,118.83,0,0,1,43.81,23.65,111.92,111.92,0,0,1,29.42,40.63c6.81,15.74,10.26,34.16,10.26,54.77,0,19.36-2.89,36.88-8.58,52.08a111.34,111.34,0,0,1-26,40.7,107.1,107.1,0,0,1-40.78,25,147.83,147.83,0,0,1-47.81,7.57v49.07l-21.39,6.41a125.72,125.72,0,0,1-15.75,3.3A136.15,136.15,0,0,1,1503.37,1123.3Z" transform="translate(-125.45 -811.44)" style="fill:url(#linear-gradient-7)"></path>
                </g>
                <g id="logo-Svg-28" style="transition-duration: 0.3s; transition-delay: 0.8s; opacity: 1; transform: rotate(0deg);">
                    <path id="logo-Svg-2-8" d="M1720.36,1123.3a117,117,0,0,1-19.72-1.55,54.66,54.66,0,0,1-23.87-10,49.64,49.64,0,0,1-16.65-22.25c-2.87-7.4-4.25-15.85-4.25-25.86v-178c0-12.75,3.16-23.89,9.41-33.13a74.82,74.82,0,0,1,19.33-19.26l.46-.33.48-.31c10.31-6.65,22.85-11.93,37.26-15.69a181.77,181.77,0,0,1,45.77-5.42,173.53,173.53,0,0,1,50,7,118.69,118.69,0,0,1,43.81,23.65,111.88,111.88,0,0,1,29.42,40.64c6.81,15.72,10.26,34.15,10.26,54.76,0,19.36-2.89,36.88-8.59,52.08a111.32,111.32,0,0,1-26,40.7,107.1,107.1,0,0,1-40.78,25,147.89,147.89,0,0,1-47.82,7.57v49.07l-21.38,6.41a125.72,125.72,0,0,1-15.75,3.3A136.25,136.25,0,0,1,1720.36,1123.3Z" transform="translate(-125.45 -811.44)" style="fill:url(#linear-gradient-8)"></path>
                </g>
                <g id="logo-Svg-11" style="transition-duration: 0.3s; transition-delay: 0.1s; opacity: 1; transform: rotate(0deg);">
                    <path id="logo-Svg-1-1" d="M238.16,841.44a143,143,0,0,1,41.36,5.75,88.6,88.6,0,0,1,32.83,17.62,81.78,81.78,0,0,1,21.51,29.86q7.78,18,7.79,42.84,0,23.75-6.68,41.54a81.17,81.17,0,0,1-18.91,29.86,77,77,0,0,1-29.49,18,117.64,117.64,0,0,1-38.39,5.94A88.79,88.79,0,0,1,218.5,1028v61.58a102.1,102.1,0,0,1-11.87,2.41,106.7,106.7,0,0,1-16.69,1.3,86.27,86.27,0,0,1-14.65-1.12,24.87,24.87,0,0,1-10.94-4.45,20.12,20.12,0,0,1-6.68-9.08q-2.22-5.76-2.22-15v-178q0-10,4.26-16.32a45.1,45.1,0,0,1,11.69-11.5q11.49-7.41,28.56-11.87A151.31,151.31,0,0,1,238.16,841.44Zm.74,141.69q38.21,0,38.21-45.62,0-23.73-9.46-35.24t-27.26-11.5a44,44,0,0,0-12.61,1.67,49.91,49.91,0,0,0-9.65,3.9v81.6a56,56,0,0,0,9.65,3.71A40.28,40.28,0,0,0,238.9,983.13Z" transform="translate(-125.45 -811.44)" style="fill:#fff"></path>
                </g>
                <g id="logo-Svg-12" style="transition-duration: 0.3s; transition-delay: 0.2s; opacity: 1; transform: rotate(0deg);">
                    <path id="logo-Svg-1-2" d="M435.49,1026.9a85.86,85.86,0,0,1-11.68,2.23,119.71,119.71,0,0,1-16.51,1.11,87.38,87.38,0,0,1-14.65-1.11,24.94,24.94,0,0,1-10.94-4.45,21.42,21.42,0,0,1-6.87-9.09q-2.41-5.75-2.41-15V889.29a31.52,31.52,0,0,1,3.16-14.65,34.4,34.4,0,0,1,9.08-10.95A65.43,65.43,0,0,1,399.33,855a150,150,0,0,1,18.73-6.86,157.38,157.38,0,0,1,20.77-4.64,140.41,140.41,0,0,1,21.51-1.67q17.81,0,28.19,6.86t10.39,22.44a36,36,0,0,1-1.48,10.2,47.43,47.43,0,0,1-3.71,9.09q-7.8,0-16,.74t-15.95,2.23q-7.8,1.49-14.66,3.15a63.71,63.71,0,0,0-11.68,3.9Z" transform="translate(-125.45 -811.44)" style="fill:#fff"></path>
                </g>
                <g id="logo-Svg-13" style="transition-duration: 0.3s; transition-delay: 0.3s; opacity: 1; transform: rotate(0deg);">
                    <path id="logo-Svg-1-3" d="M704.41,937.14q0,23-7,41a83.17,83.17,0,0,1-19.84,30.24,84.31,84.31,0,0,1-30.6,18.54q-17.8,6.3-39.69,6.31t-39.69-6.68a87.21,87.21,0,0,1-30.6-19.1,85.23,85.23,0,0,1-19.85-30.23q-7.05-17.81-7-40.06,0-21.89,7-39.69a85.32,85.32,0,0,1,19.85-30.23,87.36,87.36,0,0,1,30.6-19.1q17.81-6.69,39.69-6.68t39.69,6.86a89.7,89.7,0,0,1,30.6,19.29,85.3,85.3,0,0,1,19.84,30.23A105.93,105.93,0,0,1,704.41,937.14Zm-129.82,0q0,22.62,8.71,34.68t24.3,12q15.57,0,23.92-12.24t8.35-34.49q0-22.26-8.53-34.31t-24.11-12.06q-15.59,0-24.11,12.06T574.59,937.14Z" transform="translate(-125.45 -811.44)" style="fill:#fff"></path>
                </g>
                <g id="logo-Svg-14" style="transition-duration: 0.3s; transition-delay: 0.4s; opacity: 1; transform: rotate(0deg);">
                    <path id="logo-Svg-1-4" d="M821.62,841.44a106.8,106.8,0,0,1,29.86,4.26,73.71,73.71,0,0,1,25.41,12.8,110,110,0,0,1,25-12.24q13.91-4.82,33.57-4.82a104.26,104.26,0,0,1,27.63,3.71,70.68,70.68,0,0,1,24.11,11.68A56.54,56.54,0,0,1,1004.12,878q6.3,13.17,6.3,32.08V1026.9a85.86,85.86,0,0,1-11.68,2.23,119.71,119.71,0,0,1-16.51,1.11,87.38,87.38,0,0,1-14.65-1.11,25,25,0,0,1-10.94-4.45,21.32,21.32,0,0,1-6.86-9.09c-1.62-3.83-2.41-8.84-2.41-15V911.91q0-11.11-6.31-16.13t-17.06-5a29.76,29.76,0,0,0-11.13,2.41,31.89,31.89,0,0,0-8.9,5,11.9,11.9,0,0,1,.37,2.78V1026.9a104,104,0,0,1-12.06,2.23,117,117,0,0,1-16.13,1.11,87.38,87.38,0,0,1-14.65-1.11,25,25,0,0,1-11-4.45,21.48,21.48,0,0,1-6.86-9.09q-2.41-5.75-2.41-15V911.91q0-11.11-6.86-16.13a27.25,27.25,0,0,0-16.51-5,29.59,29.59,0,0,0-11.5,2,86.28,86.28,0,0,0-8.16,3.9V1026.9a85.86,85.86,0,0,1-11.68,2.23,119.71,119.71,0,0,1-16.51,1.11,87.46,87.46,0,0,1-14.65-1.11,25,25,0,0,1-10.94-4.45,21.32,21.32,0,0,1-6.86-9.09q-2.42-5.75-2.41-15v-112q0-10,4.26-15.95a48.18,48.18,0,0,1,11.69-11.13q12.6-8.91,31.34-14.47A136.63,136.63,0,0,1,821.62,841.44Z" transform="translate(-125.45 -811.44)" style="fill:#fff"></path>
                </g>
                <g id="logo-Svg-15" style="transition-duration: 0.3s; transition-delay: 0.5s; opacity: 1; transform: rotate(0deg);">
                    <path id="logo-Svg-1-5" d="M1235.57,937.14q0,23-7,41a83.17,83.17,0,0,1-19.84,30.24,84.31,84.31,0,0,1-30.6,18.54q-17.8,6.3-39.69,6.31t-39.69-6.68a87.21,87.21,0,0,1-30.6-19.1,85.23,85.23,0,0,1-19.85-30.23q-7.05-17.81-7-40.06,0-21.89,7-39.69a85.32,85.32,0,0,1,19.85-30.23,87.36,87.36,0,0,1,30.6-19.1q17.8-6.69,39.69-6.68t39.69,6.86a89.7,89.7,0,0,1,30.6,19.29,85.3,85.3,0,0,1,19.84,30.23A105.93,105.93,0,0,1,1235.57,937.14Zm-129.82,0q0,22.62,8.71,34.68t24.3,12q15.59,0,23.92-12.24t8.35-34.49q0-22.26-8.53-34.31t-24.11-12.06q-15.59,0-24.11,12.06T1105.75,937.14Z" transform="translate(-125.45 -811.44)" style="fill:#fff"></path>
                </g>
                <g id="logo-Svg-16" style="transition-duration: 0.3s; transition-delay: 0.6s; opacity: 1; transform: rotate(0deg);">
                    <path id="logo-Svg-1-6" d="M1341.28,841.44a152.32,152.32,0,0,1,36.54,4.08q16.5,4.08,28.19,12.43a56.09,56.09,0,0,1,18,21.14q6.3,12.79,6.3,30.23v83.09q0,9.65-5.37,15.76a53.85,53.85,0,0,1-12.8,10.57q-24.12,14.48-67.88,14.47a155.09,155.09,0,0,1-35.42-3.71,83.85,83.85,0,0,1-27.08-11.13,50.93,50.93,0,0,1-17.43-18.92q-6.12-11.49-6.12-26.7,0-25.61,15.2-39.32t47.11-17.06l48.59-5.2v-2.59q0-10.76-9.46-15.4t-27.26-4.63a126.64,126.64,0,0,0-27.45,3,147.74,147.74,0,0,0-24.11,7.42,25.69,25.69,0,0,1-8.16-10.2,32.31,32.31,0,0,1-3.34-14.28q0-9.65,4.64-15.39t14.28-9.83a111.59,111.59,0,0,1,25.41-5.94A221.54,221.54,0,0,1,1341.28,841.44Zm3,145.77a82.78,82.78,0,0,0,13.91-1.3q7.6-1.29,11.31-3.52V952.72l-26.7,2.22q-10.39.75-17.07,4.45a12,12,0,0,0-6.67,11.13,14.75,14.75,0,0,0,5.75,12.06Q1330.53,987.21,1344.25,987.21Z" transform="translate(-125.45 -811.44)" style="fill:#fff"></path>
                </g>
                <g id="logo-Svg-17" style="transition-duration: 0.3s; transition-delay: 0.7s; opacity: 1; transform: rotate(0deg);">
                    <path id="logo-Svg-1-7" d="M1551.59,841.44a143,143,0,0,1,41.36,5.75,88.52,88.52,0,0,1,32.83,17.62,81.78,81.78,0,0,1,21.51,29.86q7.8,18,7.79,42.84,0,23.75-6.67,41.54a81.32,81.32,0,0,1-18.92,29.86,77,77,0,0,1-29.49,18,117.64,117.64,0,0,1-38.39,5.94,88.69,88.69,0,0,1-29.67-4.83v61.58a103,103,0,0,1-11.87,2.41,106.92,106.92,0,0,1-16.7,1.3,86.35,86.35,0,0,1-14.65-1.12,24.87,24.87,0,0,1-10.94-4.45,20.12,20.12,0,0,1-6.68-9.08q-2.22-5.76-2.22-15v-178q0-10,4.26-16.32a45.1,45.1,0,0,1,11.69-11.5q11.49-7.41,28.56-11.87A151.31,151.31,0,0,1,1551.59,841.44Zm.75,141.69q38.19,0,38.2-45.62,0-23.73-9.46-35.24t-27.26-11.5a44,44,0,0,0-12.61,1.67,49.91,49.91,0,0,0-9.65,3.9v81.6a56,56,0,0,0,9.65,3.71A40.3,40.3,0,0,0,1552.34,983.13Z" transform="translate(-125.45 -811.44)" style="fill:#fff"></path>
                </g>
                <g id="logo-Svg-18" style="transition-duration: 0.3s; transition-delay: 0.8s; opacity: 1; transform: rotate(0deg);">
                    <path id="logo-Svg-1-8" d="M1768.58,841.44a143,143,0,0,1,41.36,5.75,88.6,88.6,0,0,1,32.83,17.62,81.78,81.78,0,0,1,21.51,29.86q7.79,18,7.79,42.84,0,23.75-6.68,41.54a81.17,81.17,0,0,1-18.91,29.86,77,77,0,0,1-29.49,18,117.64,117.64,0,0,1-38.39,5.94,88.79,88.79,0,0,1-29.68-4.83v61.58a102.1,102.1,0,0,1-11.87,2.41,106.7,106.7,0,0,1-16.69,1.3,86.27,86.27,0,0,1-14.65-1.12,24.87,24.87,0,0,1-10.94-4.45,20.12,20.12,0,0,1-6.68-9.08q-2.22-5.76-2.22-15v-178q0-10,4.26-16.32a45.1,45.1,0,0,1,11.69-11.5q11.49-7.41,28.56-11.87A151.31,151.31,0,0,1,1768.58,841.44Zm.74,141.69q38.21,0,38.21-45.62,0-23.73-9.46-35.24t-27.26-11.5a44,44,0,0,0-12.61,1.67,49.91,49.91,0,0,0-9.65,3.9v81.6a56,56,0,0,0,9.65,3.71A40.28,40.28,0,0,0,1769.32,983.13Z" transform="translate(-125.45 -811.44)" style="fill:#fff"></path>
                </g>
            </svg>